EXCLUSIVE DHAMAKA FROM Henry


Format : Matroska
File size : 400 MiB
Duration : 1h 33mn
Overall bit rate : 600 Kbps
Movie name : Hisss 2010 DvDRip x264 - Henry Kharay
Encoded date : UTC 2010-12-26 08:02:27
Writing application : mkvmerge v4.2.0 ('No Talking') built on Jul 28 2010 18:38:23
Writing library : libebml v1.0.0 + libmatroska v1.0.0 
===================================================================================
Video
ID : 1
Format : AVC
Format/Info : Advanced Video Codec
Format profile : High@L2.1
Format settings, CABAC : Yes
Format settings, ReFrames : 4 frames
Muxing mode : Container profile=Unknown@2.1
Codec ID : V_MPEG4/ISO/AVC
Duration : 1h 33mn
Bit rate : 509 Kbps
Width : 672 pixels
Height : 288 pixels
Display aspect ratio : 2.35:1
Frame rate : 25.000 fps
Color space : YUV
Chroma subsampling : 4:2:0
Bit depth : 8 bits
Scan type : Progressive
Bits/(Pixel*Frame) : 0.105
Stream size : 332 MiB (83%)
Title : Ripped By Henry
Writing library : x264 
==================================================================================
Audio
ID : 2
Format : MPEG Audio
Format version : Version 1
Format profile : Layer 3
Mode : Joint stereo
Mode extension : MS Stereo
Codec ID : A_MPEG/L3
Codec ID/Hint : MP3
Duration : 1h 33mn
Bit rate mode : Variable
Bit rate : 89.8 Kbps
Nominal bit rate : 96.0 Kbps
Channel(s) : 2 channels
Sampling rate : 32.0 KHz
Stream size : 59.9 MiB (15%)
Writing library : LAME3.98r
Encoding settings : -m j -V 4 -q 2 -lowpass 15.1 --abr 96

Screens: 
http://img146.imageshack.us/img146/7646/vlcsnap2010122614h02m24.png 
http://img21.imageshack.us/img21/6719/vlcsnap2010122614h00m00.png 
http://img51.imageshack.us/img51/1226/vlcsnap2010122614h00m12.png 
http://img513.imageshack.us/img513/1640/vlcsnap2010122614h03m57.png 
http://img35.imageshack.us/img35/4617/vlcsnap2010122614h03m32.png 
http://img703.imageshack.us/img703/3924/vlcsnap2010122613h53m54.png 
http://img337.imageshack.us/img337/4670/vlcsnap2010122614h09m21.png

Sample Include In Torrent

Keep Seeding
Thnx

